<?xml version="1.0" encoding="utf-8"?>
<!-- Generator: Adobe Illustrator 22.1.0, SVG Export Plug-In . SVG Version: 6.00 Build 0)  -->
<svg version="1.1" id="Layer_1" xmlns="http://www.w3.org/2000/svg" xmlns:xlink="http://www.w3.org/1999/xlink" x="0px" y="0px"
	 viewBox="0 0 132 41" style="enable-background:new 0 0 132 41;" xml:space="preserve">
<style type="text/css">
	.st0{enable-background:new    ;}
	.st1{fill:#5E5E5E;}
</style>
<image style="overflow:visible;enable-background:new    ;" width="132" height="41" id="Background_copy_2" xlink:href="249038F0.jpg"  transform="matrix(1 0 0 1 0 1.682073e-05)">
</image>
<g id="Přihlásit_se" class="st0">
	<path class="st1" d="M47.8,21.9v3.6h-1.6v-9.8h3c1.1,0,2,0.3,2.6,0.8c0.6,0.5,0.9,1.3,0.9,2.2s-0.3,1.7-1,2.3
		c-0.6,0.6-1.5,0.9-2.6,0.9H47.8z M47.8,17v3.6h1.1c0.7,0,1.2-0.2,1.6-0.5c0.4-0.3,0.5-0.8,0.5-1.4c0-1.2-0.7-1.7-2-1.7H47.8z"/>
	<path class="st1" d="M58.3,15l-1.5,2.2h-1.3L54,15H55l1.1,1.4l1.1-1.4H58.3z M58.3,19.9c-0.2-0.2-0.5-0.2-0.8-0.2
		c-0.5,0-0.9,0.2-1.2,0.6s-0.5,1-0.5,1.7v3.3h-1.6v-7h1.6v1.4h0c0.2-0.5,0.4-0.9,0.7-1.2c0.3-0.3,0.7-0.4,1.1-0.4
		c0.3,0,0.5,0,0.7,0.1V19.9z"/>
	<path class="st1" d="M60.2,17c-0.3,0-0.5-0.1-0.7-0.3s-0.3-0.4-0.3-0.6s0.1-0.5,0.3-0.6s0.4-0.3,0.7-0.3c0.3,0,0.5,0.1,0.7,0.3
		s0.3,0.4,0.3,0.6c0,0.2-0.1,0.5-0.3,0.6S60.5,17,60.2,17z M61,25.4h-1.6v-7H61V25.4z"/>
	<path class="st1" d="M69.3,25.4h-1.6v-3.8c0-1.4-0.5-2.1-1.4-2.1c-0.5,0-0.9,0.2-1.2,0.6c-0.3,0.4-0.5,0.9-0.5,1.5v3.8h-1.6V15.1
		h1.6v4.5h0c0.5-0.9,1.3-1.3,2.3-1.3c1.6,0,2.3,1,2.3,2.9V25.4z"/>
	<path class="st1" d="M72.8,25.4h-1.6V15.1h1.6V25.4z"/>
	<path class="st1" d="M80.2,25.4h-1.5v-1.1h0c-0.5,0.8-1.2,1.3-2.1,1.3c-0.7,0-1.2-0.2-1.6-0.6c-0.4-0.4-0.6-0.9-0.6-1.5
		c0-1.3,0.8-2.1,2.3-2.3l2.1-0.3c0-1-0.5-1.5-1.4-1.5c-0.8,0-1.6,0.3-2.3,0.9v-1.4c0.7-0.4,1.6-0.7,2.6-0.7c1.8,0,2.7,0.9,2.7,2.6
		V25.4z M78.7,22l-1.5,0.2c-0.5,0.1-0.8,0.2-1,0.3c-0.2,0.2-0.3,0.4-0.3,0.9c0,0.3,0.1,0.5,0.3,0.7c0.2,0.2,0.5,0.3,0.9,0.3
		c0.5,0,0.9-0.2,1.2-0.5c0.3-0.3,0.5-0.8,0.5-1.3V22z M79.5,14.9l-2,2.2h-1.2l1.7-2.2H79.5z"/>
	<path class="st1" d="M81.7,25.2v-1.5c0.6,0.5,1.2,0.7,2,0.7c1,0,1.4-0.3,1.4-0.8c0-0.2,0-0.3-0.1-0.4c-0.1-0.1-0.2-0.2-0.3-0.3
		c-0.1-0.1-0.3-0.2-0.5-0.2c-0.2-0.1-0.4-0.1-0.6-0.2c-0.3-0.1-0.5-0.2-0.8-0.4c-0.2-0.1-0.4-0.3-0.6-0.4c-0.2-0.2-0.3-0.3-0.3-0.6
		c-0.1-0.2-0.1-0.4-0.1-0.7c0-0.3,0.1-0.6,0.2-0.9c0.2-0.3,0.4-0.5,0.6-0.6c0.3-0.2,0.6-0.3,0.9-0.4s0.7-0.1,1.1-0.1
		c0.6,0,1.2,0.1,1.7,0.3V20c-0.5-0.3-1.1-0.5-1.7-0.5c-0.2,0-0.4,0-0.5,0.1s-0.3,0.1-0.4,0.2c-0.1,0.1-0.2,0.2-0.3,0.3
		c-0.1,0.1-0.1,0.2-0.1,0.3c0,0.2,0,0.3,0.1,0.4c0.1,0.1,0.2,0.2,0.3,0.3c0.1,0.1,0.3,0.2,0.5,0.2c0.2,0.1,0.4,0.1,0.6,0.2
		c0.3,0.1,0.6,0.2,0.8,0.4c0.2,0.1,0.4,0.3,0.6,0.4c0.2,0.2,0.3,0.3,0.4,0.6c0.1,0.2,0.1,0.5,0.1,0.8c0,0.4-0.1,0.7-0.2,0.9
		s-0.4,0.5-0.7,0.7s-0.6,0.3-0.9,0.4c-0.4,0.1-0.7,0.1-1.1,0.1C83,25.6,82.3,25.5,81.7,25.2z"/>
	<path class="st1" d="M89,17c-0.3,0-0.5-0.1-0.7-0.3c-0.2-0.2-0.3-0.4-0.3-0.6s0.1-0.5,0.3-0.6c0.2-0.2,0.4-0.3,0.7-0.3
		c0.3,0,0.5,0.1,0.7,0.3s0.3,0.4,0.3,0.6c0,0.2-0.1,0.5-0.3,0.6S89.3,17,89,17z M89.8,25.4h-1.6v-7h1.6V25.4z"/>
	<path class="st1" d="M95.6,25.4c-0.3,0.2-0.7,0.2-1.2,0.2c-1.4,0-2-0.7-2-2v-4h-1.2v-1.2h1.2v-1.6l1.6-0.5v2.1h1.7v1.2h-1.7v3.5
		c0,0.4,0.1,0.7,0.2,0.9s0.4,0.3,0.8,0.3c0.3,0,0.5-0.1,0.7-0.2V25.4z"/>
	<path class="st1" d="M100.3,25.2v-1.5c0.6,0.5,1.2,0.7,2,0.7c1,0,1.4-0.3,1.4-0.8c0-0.2,0-0.3-0.1-0.4c-0.1-0.1-0.2-0.2-0.3-0.3
		c-0.1-0.1-0.3-0.2-0.5-0.2c-0.2-0.1-0.4-0.1-0.6-0.2c-0.3-0.1-0.5-0.2-0.8-0.4c-0.2-0.1-0.4-0.3-0.6-0.4c-0.2-0.2-0.3-0.3-0.3-0.6
		c-0.1-0.2-0.1-0.4-0.1-0.7c0-0.3,0.1-0.6,0.2-0.9c0.2-0.3,0.4-0.5,0.6-0.6c0.3-0.2,0.6-0.3,0.9-0.4s0.7-0.1,1.1-0.1
		c0.6,0,1.2,0.1,1.7,0.3V20c-0.5-0.3-1.1-0.5-1.7-0.5c-0.2,0-0.4,0-0.5,0.1s-0.3,0.1-0.4,0.2c-0.1,0.1-0.2,0.2-0.3,0.3
		c-0.1,0.1-0.1,0.2-0.1,0.3c0,0.2,0,0.3,0.1,0.4c0.1,0.1,0.2,0.2,0.3,0.3c0.1,0.1,0.3,0.2,0.5,0.2c0.2,0.1,0.4,0.1,0.6,0.2
		c0.3,0.1,0.6,0.2,0.8,0.4c0.2,0.1,0.4,0.3,0.6,0.4c0.2,0.2,0.3,0.3,0.4,0.6c0.1,0.2,0.1,0.5,0.1,0.8c0,0.4-0.1,0.7-0.2,0.9
		s-0.4,0.5-0.7,0.7s-0.6,0.3-0.9,0.4c-0.4,0.1-0.7,0.1-1.1,0.1C101.6,25.6,100.9,25.5,100.3,25.2z"/>
	<path class="st1" d="M112.7,22.4H108c0,0.6,0.2,1.1,0.6,1.5c0.4,0.4,0.9,0.5,1.6,0.5c0.7,0,1.4-0.2,2.1-0.7V25
		c-0.6,0.4-1.5,0.6-2.5,0.6c-1,0-1.8-0.3-2.4-1c-0.6-0.6-0.9-1.5-0.9-2.7c0-1.1,0.3-2,1-2.7c0.6-0.7,1.4-1,2.4-1s1.7,0.3,2.2,0.9
		c0.5,0.6,0.8,1.5,0.8,2.6V22.4z M111.2,21.2c0-0.6-0.1-1-0.4-1.3c-0.3-0.3-0.6-0.5-1.1-0.5c-0.5,0-0.8,0.2-1.2,0.5
		c-0.3,0.3-0.5,0.8-0.6,1.3H111.2z"/>
</g>
</svg>
